HIERARCHY
ROOT Hips
{
	OFFSET -0.001795 -0.223333 0.028219
	CHANNELS 6 Xposition Yposition Zposition Zrotation Yrotation Xrotation 
	JOINT LeftUpLeg
	{
		OFFSET 0.069520 -0.091406 -0.006815
		CHANNELS 3 Zrotation Yrotation Xrotation
		JOINT LeftLeg
		{
			OFFSET 0.034277 -0.375199 -0.004496
			CHANNELS 3 Zrotation Yrotation Xrotation
			JOINT LeftFoot
			{
				OFFSET -0.013596 -0.397961 -0.043693
				CHANNELS 3 Zrotation Yrotation Xrotation
				JOINT LeftToe
				{
					OFFSET 0.026358 -0.055791 0.119288
					CHANNELS 3 Zrotation Yrotation Xrotation
					End Site
					{
						OFFSET 0.000000 0.000000 0.000000
					}
				}
			}
		}
	}
	JOINT RightUpLeg
	{
		OFFSET -0.067670 -0.090522 -0.004320
		CHANNELS 3 Zrotation Yrotation Xrotation
		JOINT RightLeg
		{
			OFFSET -0.038290 -0.382569 -0.008850
			CHANNELS 3 Zrotation Yrotation Xrotation
			JOINT RightFoot
			{
				OFFSET 0.015774 -0.398415 -0.042312
				CHANNELS 3 Zrotation Yrotation Xrotation
				JOINT RightToe
				{
					OFFSET -0.025372 -0.048144 0.123348
					CHANNELS 3 Zrotation Yrotation Xrotation
					End Site
					{
						OFFSET 0.000000 0.000000 0.000000
					}
				}
			}
		}
	}
	JOINT Spine
	{
		OFFSET -0.002533 0.108963 -0.026696
		CHANNELS 3 Zrotation Yrotation Xrotation
		JOINT Spine1
		{
			OFFSET 0.005487 0.135180 0.001092
			CHANNELS 3 Zrotation Yrotation Xrotation
			JOINT Spine2
			{
				OFFSET 0.001457 0.052922 0.025425
				CHANNELS 3 Zrotation Yrotation Xrotation
				JOINT Neck
				{
					OFFSET -0.002778 0.213870 -0.042857
					CHANNELS 3 Zrotation Yrotation Xrotation
					JOINT Head
					{
						OFFSET 0.005152 0.064970 0.051349
						CHANNELS 3 Zrotation Yrotation Xrotation
						End Site
						{
							OFFSET 0.000000 0.000000 0.000000
						}
					}
				}
				JOINT LeftShoulder
				{
					OFFSET 0.078845 0.121749 -0.034090
					CHANNELS 3 Zrotation Yrotation Xrotation
					JOINT LeftArm
					{
						OFFSET 0.090977 0.030469 -0.008868
						CHANNELS 3 Zrotation Yrotation Xrotation
						JOINT LeftForeArm
						{
							OFFSET 0.259612 -0.012772 -0.027456
							CHANNELS 3 Zrotation Yrotation Xrotation
							JOINT LeftHand
							{
								OFFSET 0.249234 0.008986 -0.001171
								CHANNELS 3 Zrotation Yrotation Xrotation
								End Site
								{
									OFFSET 0.000000 0.000000 0.000000
								}
							}
						}
					}
				}
				JOINT RightShoulder
				{
					OFFSET -0.081759 0.118833 -0.038615
					CHANNELS 3 Zrotation Yrotation Xrotation
					JOINT RightArm
					{
						OFFSET -0.096012 0.032551 -0.009143
						CHANNELS 3 Zrotation Yrotation Xrotation
						JOINT RightForeArm
						{
							OFFSET -0.253742 -0.013329 -0.021401
							CHANNELS 3 Zrotation Yrotation Xrotation
							JOINT RightHand
							{
								OFFSET -0.255298 0.007772 -0.005559
								CHANNELS 3 Zrotation Yrotation Xrotation
								End Site
								{
									OFFSET 0.000000 0.000000 0.000000
								}
							}
						}
					}
				}
			}
		}
	}
}
MOTION
Frames: 14
Frame Time: 0.050000
0.005086 0.950806 -0.037901 -1.051029 -8.375785 10.672759 4.465628 -0.635424 -12.182427 -3.301929 0.414205 1.199558 5.582634 12.978711 15.181548 0.000000 0.000000 0.000000 -2.618062 1.554170 -16.249337 2.654624 -0.126257 4.201562 -1.594123 -11.060845 18.494489 0.000000 0.000000 0.000000 -4.475355 0.497062 20.619796 5.166504 -1.535348 -12.405391 -0.430547 -0.605091 21.367784 -4.114124 3.106349 -24.367516 0.000000 0.000000 0.000000 -14.707218 -28.841413 14.993952 -7.435335 -49.560468 -1.228937 70.907510 -31.170582 -18.971864 0.000000 0.000000 0.000000 7.964421 37.348354 15.047535 20.670301 37.464638 1.960769 -71.135092 37.136315 -24.211821 0.000000 0.000000 0.000000 
0.002775 0.954454 -0.027207 -0.885055 -8.187368 9.272910 4.189269 -0.554050 -9.663396 -3.101790 0.387078 0.614897 5.217210 12.508510 15.907751 0.000000 0.000000 0.000000 -2.041481 1.282001 -13.257323 1.613870 -0.047855 2.909079 -1.376949 -10.787009 18.964577 0.000000 0.000000 0.000000 -3.767750 0.225644 16.661536 4.955725 -1.333528 -14.681396 -0.975458 -1.267090 22.667988 -3.501363 2.651399 -25.217924 0.000000 0.000000 0.000000 -14.769207 -25.827310 13.543670 -8.809624 -48.480833 -0.799032 84.843074 -33.981690 -26.568544 0.000000 0.000000 0.000000 9.202800 34.313312 13.756737 20.864216 35.672910 1.713578 -87.794633 40.218445 -35.677283 0.000000 0.000000 0.000000 
0.000830 0.957051 -0.014832 -0.479928 -7.232036 7.697998 3.816781 -0.435981 -6.671164 -3.098640 0.384382 -0.521623 4.427228 11.499060 16.285331 0.000000 0.000000 0.000000 -1.728058 0.991068 -10.286151 0.569460 0.038277 2.279677 -1.679897 -11.136104 19.191720 0.000000 0.000000 0.000000 -3.843467 0.142326 12.244023 5.642242 -1.415054 -16.436176 -1.828283 -1.502325 23.480251 -2.916706 2.348736 -24.448247 0.000000 0.000000 0.000000 -13.995058 -23.358775 11.972835 -9.575099 -48.346465 -0.555724 97.802986 -34.441525 -33.527395 0.000000 0.000000 0.000000 8.380117 30.034357 11.658536 18.850339 36.601955 1.267026 -104.584124 36.818827 -42.877450 0.000000 0.000000 0.000000 
-0.000049 0.960000 -0.003586 -0.357212 -7.379522 6.496925 3.387521 -0.283100 -3.837813 -2.712306 0.351201 -1.903954 4.201322 11.242545 17.083347 0.000000 0.000000 0.000000 -1.243537 0.789135 -8.093275 -0.520373 0.141171 1.962399 -1.395567 -10.827530 19.657167 0.000000 0.000000 0.000000 -3.308908 0.046555 8.103980 5.354211 -1.228336 -18.050479 -1.904120 -1.245919 23.692701 -2.542567 2.128087 -23.620754 0.000000 0.000000 0.000000 -11.092665 -20.724336 9.953629 -11.433462 -49.758784 0.284579 107.107458 -31.693429 -35.549877 0.000000 0.000000 0.000000 5.559995 26.807014 9.790334 17.098553 38.554147 0.960196 -115.081733 29.958190 -41.671827 0.000000 0.000000 0.000000 
-0.000540 0.961414 0.004939 -0.162450 -6.420694 5.466097 3.513229 -0.191808 -2.388886 -3.166918 0.395202 -1.770305 3.535239 10.415057 17.144017 0.000000 0.000000 0.000000 -1.370300 0.591756 -6.057511 -0.544160 0.121322 1.500446 -1.760368 -11.288663 20.024976 0.000000 0.000000 0.000000 -3.474151 0.059827 4.903037 5.629604 -1.185662 -19.427816 -1.721946 -1.673025 23.916193 -1.732497 1.647373 -23.224612 0.000000 0.000000 0.000000 -7.434829 -19.677963 8.630058 -10.183376 -51.880907 0.148395 109.796126 -26.868501 -31.137708 0.000000 0.000000 0.000000 1.221907 24.601925 8.332864 13.437280 40.946932 0.086814 -117.911333 20.366256 -29.850251 0.000000 0.000000 0.000000 
-0.000654 0.962971 0.010462 -0.116920 -5.843087 4.929266 3.426054 -0.154390 -1.789644 -3.026448 0.374081 -1.323874 3.154494 9.963772 17.323255 0.000000 0.000000 0.000000 -0.896992 0.476783 -4.832706 -1.408650 0.192887 1.115055 -1.934773 -11.568777 20.532799 0.000000 0.000000 0.000000 -3.100315 0.053462 2.323879 5.772662 -1.121760 -20.615303 -1.715913 -1.700759 23.938040 -1.941262 1.814623 -23.159672 0.000000 0.000000 0.000000 -4.041062 -18.825170 7.531422 -8.516490 -53.348987 -0.263788 110.713749 -22.642397 -26.269992 0.000000 0.000000 0.000000 -3.370423 23.437369 7.363976 10.304449 43.010920 -0.803409 -120.517967 13.422132 -20.282543 0.000000 0.000000 0.000000 
-0.000816 0.963138 0.014171 -0.182803 -5.099814 4.595651 3.560282 -0.149940 -1.704632 -2.989335 0.360986 -0.571364 2.803617 9.508633 17.050532 0.000000 0.000000 0.000000 -0.759677 0.429589 -4.338549 -1.404012 0.214742 1.486434 -2.310421 -12.040114 20.678457 0.000000 0.000000 0.000000 -3.189749 0.073019 0.772746 5.959998 -1.077561 -21.599885 -1.129223 -2.226749 23.774174 -1.895106 1.762707 -23.046492 0.000000 0.000000 0.000000 -3.135545 -18.172430 7.096104 -4.279854 -53.882821 -1.880497 110.514421 -20.787825 -24.064134 0.000000 0.000000 0.000000 -5.434398 22.481723 6.837280 6.007934 44.535072 -2.196573 -120.835907 9.279343 -13.972270 0.000000 0.000000 0.000000 
-0.001107 0.962991 0.017359 -0.012589 -4.231460 4.451477 3.583494 -0.141418 -1.489727 -3.152163 0.373683 -0.533436 2.337091 8.906742 16.866379 0.000000 0.000000 0.000000 -0.839281 0.370282 -3.698318 -1.426385 0.201665 1.171855 -2.758171 -12.585228 20.777605 0.000000 0.000000 0.000000 -3.079230 0.097411 -1.210431 5.966721 -0.989409 -22.505477 -1.324049 -2.438074 23.974242 -1.873410 1.805412 -23.566964 0.000000 0.000000 0.000000 -1.227660 -17.724301 6.535827 -4.316529 -53.890943 -1.816924 111.130603 -20.140273 -23.519928 0.000000 0.000000 0.000000 -7.545805 21.259056 6.263258 5.208720 45.336639 -2.495325 -122.800665 6.510786 -9.614656 0.000000 0.000000 0.000000 
-0.001484 0.962306 0.020528 0.053476 -3.577345 4.105074 3.706084 -0.103082 -0.833403 -3.321084 0.389555 -0.797338 1.986829 8.422893 16.569355 0.000000 0.000000 0.000000 -0.655816 0.299551 -2.966191 -1.728330 0.230032 1.066073 -3.131507 -13.018787 20.659550 0.000000 0.000000 0.000000 -3.038252 0.116229 -2.659092 5.794818 -0.938559 -22.539149 -1.162557 -2.837286 23.743839 -2.419946 2.107941 -22.577062 0.000000 0.000000 0.000000 -1.084148 -16.833354 6.175011 -2.744344 -54.277703 -2.442771 110.778898 -20.223798 -23.665193 0.000000 0.000000 0.000000 -8.609336 21.036627 6.090332 2.960491 44.629382 -3.158994 -123.218434 6.214100 -9.449768 0.000000 0.000000 0.000000 
-0.001930 0.961263 0.023238 0.122835 -2.956715 3.753165 3.797269 -0.082959 -0.458313 -3.432146 0.397069 -0.600264 1.707972 8.005137 16.129679 0.000000 0.000000 0.000000 -0.826705 0.200119 -1.867708 -1.409227 0.154163 0.264610 -3.445042 -13.357855 20.496293 0.000000 0.000000 0.000000 -3.220421 0.129720 -3.874527 6.000917 -0.956038 -22.864690 -1.229701 -2.544729 23.607820 -2.263954 2.134767 -23.233482 0.000000 0.000000 0.000000 -0.380879 -16.092157 5.752142 -3.215511 -55.368020 -2.344935 110.990894 -20.611217 -24.485213 0.000000 0.000000 0.000000 -9.329438 20.274040 5.787351 2.592995 44.003416 -3.117673 -123.604162 5.598639 -8.135179 0.000000 0.000000 0.000000 
-0.002450 0.960139 0.024594 0.349069 -2.344549 3.660808 3.731547 -0.060944 -0.036903 -3.555826 0.407020 -1.142931 1.394090 7.551693 15.842696 0.000000 0.000000 0.000000 -0.866563 0.152606 -1.342617 -1.600197 0.150834 -0.186437 -3.822320 -13.797844 20.258100 0.000000 0.000000 0.000000 -3.399364 0.140656 -5.100423 6.207107 -1.013199 -22.701765 -1.310499 -2.535124 23.138623 -2.526447 2.356485 -23.242808 0.000000 0.000000 0.000000 0.197568 -15.763061 5.524983 -2.297067 -56.065442 -2.776936 109.189704 -18.960898 -21.858348 0.000000 0.000000 0.000000 -9.984376 20.231735 5.686546 2.279801 44.089127 -3.141127 -122.795034 5.518012 -7.673611 0.000000 0.000000 0.000000 
-0.003109 0.958792 0.024591 0.591841 -1.275391 3.367486 4.004672 -0.056258 0.218293 -4.168632 0.461268 -1.258033 0.849847 6.771099 15.422870 0.000000 0.000000 0.000000 -0.836107 0.080619 -0.578143 -1.826369 0.147682 -0.709700 -4.437948 -14.546448 20.062800 0.000000 0.000000 0.000000 -3.954391 0.123021 -5.983543 6.494263 -1.057902 -22.871464 -1.307803 -3.070616 23.115339 -2.918572 2.634791 -24.902403 0.000000 0.000000 0.000000 0.664464 -15.004218 5.181888 -1.950260 -57.554611 -2.999090 107.710950 -17.596175 -19.641063 0.000000 0.000000 0.000000 -10.650172 20.105015 5.571942 2.967182 44.200837 -2.910100 -121.326980 5.282174 -7.012598 0.000000 0.000000 0.000000 
-0.003860 0.957598 0.023838 0.601849 -0.704444 3.357207 4.188716 -0.073896 0.049242 -4.295600 0.468988 -1.136258 0.638646 6.416939 15.009712 0.000000 0.000000 0.000000 -0.559503 0.026934 -0.095991 -2.130087 0.134116 -1.483298 -4.758883 -14.937025 19.919708 0.000000 0.000000 0.000000 -4.305374 0.109587 -6.742044 6.688995 -1.136315 -22.447282 -1.188726 -3.307640 22.872696 -3.207226 2.827526 -25.436837 0.000000 0.000000 0.000000 0.252064 -14.896422 5.195656 0.065953 -58.361209 -4.004799 107.301259 -16.998253 -18.953037 0.000000 0.000000 0.000000 -9.989935 20.407247 5.711435 4.590920 44.647702 -2.395884 -119.932937 5.578609 -7.121706 0.000000 0.000000 0.000000 
-0.004655 0.956555 0.023336 0.600943 -0.248574 2.977979 4.197595 -0.062544 0.263855 -4.116804 0.447771 -0.921367 0.484990 6.125670 14.576432 0.000000 0.000000 0.000000 -0.537736 -0.029720 0.484350 -1.980843 0.109556 -1.712482 -5.018389 -15.247529 19.680970 0.000000 0.000000 0.000000 -4.605396 0.087683 -7.364249 6.724472 -1.198607 -21.815621 -0.853885 -3.133002 22.610784 -3.495793 3.062585 -25.647543 0.000000 0.000000 0.000000 -0.098882 -14.944502 5.242092 -0.305302 -59.095532 -3.968425 106.965266 -16.715861 -18.643783 0.000000 0.000000 0.000000 -8.833614 20.613823 5.875536 8.619980 44.290926 -1.035128 -120.665708 8.068302 -10.750474 0.000000 0.000000 0.000000 
